HIERARCHY
ROOT Hips
{
    OFFSET   0.000000   0.000000   0.000000
    CHANNELS 6 Xposition Yposition Zposition Zrotation Xrotation Yrotation
    JOINT Chest
    {
        OFFSET   0.000000   8.007240   0.000000
        CHANNELS 3 Zrotation Xrotation Yrotation
        JOINT Chest2
        {
            OFFSET   0.000000  22.077100   0.000000
            CHANNELS 3 Zrotation Xrotation Yrotation
            JOINT Neck
            {
                OFFSET   0.000000  23.254800   0.000000
                CHANNELS 3 Zrotation Xrotation Yrotation
                JOINT Head
                {
                    OFFSET   0.000000  14.370000   1.956600
                    CHANNELS 3 Zrotation Xrotation Yrotation
                    End Site
                    {
                        OFFSET   0.000000  19.566000   0.000000
                    }
                }
            }
            JOINT LeftCollar
            {
                OFFSET   3.911900  19.017000  -0.467064
                CHANNELS 3 Zrotation Xrotation Yrotation
                JOINT LeftShoulder
                {
                    OFFSET  10.383700   0.000000   0.000000
                    CHANNELS 3 Zrotation Xrotation Yrotation
                    JOINT LeftElbow
                    {
                        OFFSET  26.662100   0.001476   0.000517
                        CHANNELS 3 Zrotation Xrotation Yrotation
                        JOINT LeftWrist
                        {
                            OFFSET  28.869000  -0.000025  -0.000106
                            CHANNELS 3 Zrotation Xrotation Yrotation
                            JOINT LeftFinger0
                            {
                                OFFSET   2.044660  -2.323460   3.252850
                                CHANNELS 3 Zrotation Xrotation Yrotation
                                JOINT LeftFinger01
                                {
                                    OFFSET   3.088130   0.000000   0.000000
                                    CHANNELS 3 Zrotation Xrotation Yrotation
                                    JOINT LeftFinger02
                                    {
                                        OFFSET   2.639460   0.000000   0.000000
                                        CHANNELS 3 Zrotation Xrotation Yrotation
                                        End Site
                                        {
                                            OFFSET   2.582190   0.000000   0.000000
                                        }
                                    }
                                }
                            }
                            JOINT LeftFinger1
                            {
                                OFFSET   8.364480   0.000000   3.252850
                                CHANNELS 3 Zrotation Xrotation Yrotation
                                JOINT LeftFinger11
                                {
                                    OFFSET   4.646930   0.000000   0.000000
                                    CHANNELS 3 Zrotation Xrotation Yrotation
                                    JOINT LeftFinger12
                                    {
                                        OFFSET   2.323460   0.000000   0.000000
                                        CHANNELS 3 Zrotation Xrotation Yrotation
                                        End Site
                                        {
                                            OFFSET   2.273050   0.000000   0.000000
                                        }
                                    }
                                }
                            }
                            JOINT LeftFinger2
                            {
                                OFFSET   8.364490   0.000015   1.078090
                                CHANNELS 3 Zrotation Xrotation Yrotation
                                JOINT LeftFinger21
                                {
                                    OFFSET   5.111620   0.000000   0.000000
                                    CHANNELS 3 Zrotation Xrotation Yrotation
                                    JOINT LeftFinger22
                                    {
                                        OFFSET   2.788160   0.000016   0.000000
                                        CHANNELS 3 Zrotation Xrotation Yrotation
                                        End Site
                                        {
                                            OFFSET   2.727660   0.000000   0.000000
                                        }
                                    }
                                }
                            }
                            JOINT LeftFinger3
                            {
                                OFFSET   7.899780   0.000017  -1.078090
                                CHANNELS 3 Zrotation Xrotation Yrotation
                                JOINT LeftFinger31
                                {
                                    OFFSET   4.646930   0.000000   0.000000
                                    CHANNELS 3 Zrotation Xrotation Yrotation
                                    JOINT LeftFinger32
                                    {
                                        OFFSET   2.323470   0.000000   0.000000
                                        CHANNELS 3 Zrotation Xrotation Yrotation
                                        End Site
                                        {
                                            OFFSET   2.273050   0.000000   0.000000
                                        }
                                    }
                                }
                            }
                            JOINT LeftFinger4
                            {
                                OFFSET   7.435090   0.000000  -3.252850
                                CHANNELS 3 Zrotation Xrotation Yrotation
                                JOINT LeftFinger41
                                {
                                    OFFSET   3.717550   0.000000   0.000000
                                    CHANNELS 3 Zrotation Xrotation Yrotation
                                    JOINT LeftFinger42
                                    {
                                        OFFSET   1.858770   0.000000   0.000000
                                        CHANNELS 3 Zrotation Xrotation Yrotation
                                        End Site
                                        {
                                            OFFSET   1.818440   0.000000   0.000000
                                        }
                                    }
                                }
                            }
                        }
                    }
                }
            }
            JOINT RightCollar
            {
                OFFSET  -3.911900  19.017000  -0.467063
                CHANNELS 3 Zrotation Xrotation Yrotation
                JOINT RightShoulder
                {
                    OFFSET -10.383700   0.000019   0.000000
                    CHANNELS 3 Zrotation Xrotation Yrotation
                    JOINT RightElbow
                    {
                        OFFSET -26.662100   0.001175   0.000102
                        CHANNELS 3 Zrotation Xrotation Yrotation
                        JOINT RightWrist
                        {
                            OFFSET -28.869000   0.000016  -0.000079
                            CHANNELS 3 Zrotation Xrotation Yrotation
                            JOINT RightFinger0
                            {
                                OFFSET  -2.044660  -2.323490   3.252850
                                CHANNELS 3 Zrotation Xrotation Yrotation
                                JOINT RightFinger01
                                {
                                    OFFSET  -3.088140   0.000000   0.000000
                                    CHANNELS 3 Zrotation Xrotation Yrotation
                                    JOINT RightFinger02
                                    {
                                        OFFSET  -2.639460   0.000000   0.000000
                                        CHANNELS 3 Zrotation Xrotation Yrotation
                                        End Site
                                        {
                                            OFFSET  -2.582190   0.000000   0.000000
                                        }
                                    }
                                }
                            }
                            JOINT RightFinger1
                            {
                                OFFSET  -8.364480   0.000000   3.252850
                                CHANNELS 3 Zrotation Xrotation Yrotation
                                JOINT RightFinger11
                                {
                                    OFFSET  -4.646930   0.000000   0.000000
                                    CHANNELS 3 Zrotation Xrotation Yrotation
                                    JOINT RightFinger12
                                    {
                                        OFFSET  -2.323470   0.000000   0.000000
                                        CHANNELS 3 Zrotation Xrotation Yrotation
                                        End Site
                                        {
                                            OFFSET  -2.273050   0.000000   0.000000
                                        }
                                    }
                                }
                            }
                            JOINT RightFinger2
                            {
                                OFFSET  -8.364480   0.000000   1.078090
                                CHANNELS 3 Zrotation Xrotation Yrotation
                                JOINT RightFinger21
                                {
                                    OFFSET  -5.111620   0.000000   0.000000
                                    CHANNELS 3 Zrotation Xrotation Yrotation
                                    JOINT RightFinger22
                                    {
                                        OFFSET  -2.788160   0.000000   0.000000
                                        CHANNELS 3 Zrotation Xrotation Yrotation
                                        End Site
                                        {
                                            OFFSET  -2.727660   0.000000   0.000000
                                        }
                                    }
                                }
                            }
                            JOINT RightFinger3
                            {
                                OFFSET  -7.899780   0.000000  -1.078090
                                CHANNELS 3 Zrotation Xrotation Yrotation
                                JOINT RightFinger31
                                {
                                    OFFSET  -4.646930   0.000000   0.000000
                                    CHANNELS 3 Zrotation Xrotation Yrotation
                                    JOINT RightFinger32
                                    {
                                        OFFSET  -2.323470   0.000000   0.000000
                                        CHANNELS 3 Zrotation Xrotation Yrotation
                                        End Site
                                        {
                                            OFFSET  -2.273050   0.000000   0.000000
                                        }
                                    }
                                }
                            }
                            JOINT RightFinger4
                            {
                                OFFSET  -7.435090   0.000000  -3.252850
                                CHANNELS 3 Zrotation Xrotation Yrotation
                                JOINT RightFinger41
                                {
                                    OFFSET  -3.717550   0.000000   0.000000
                                    CHANNELS 3 Zrotation Xrotation Yrotation
                                    JOINT RightFinger42
                                    {
                                        OFFSET  -1.858770   0.000000   0.000000
                                        CHANNELS 3 Zrotation Xrotation Yrotation
                                        End Site
                                        {
                                            OFFSET  -1.818440   0.000000   0.000000
                                        }
                                    }
                                }
                            }
                        }
                    }
                }
            }
        }
    }
    JOINT LeftHip
    {
        OFFSET   9.783040   0.000000   0.000000
        CHANNELS 3 Zrotation Xrotation Yrotation
        JOINT LeftKnee
        {
            OFFSET   0.000032 -41.789100  -0.002222
            CHANNELS 3 Zrotation Xrotation Yrotation
            JOINT LeftAnkle
            {
                OFFSET   0.000087 -41.133200  -0.000135
                CHANNELS 3 Zrotation Xrotation Yrotation
                JOINT LeftToe
                {
                    OFFSET   0.000000  -6.358960  14.674500
                    CHANNELS 3 Zrotation Xrotation Yrotation
                    End Site
                    {
                        OFFSET   0.000000   0.000000   3.913200
                    }
                }
            }
        }
    }
    JOINT RightHip
    {
        OFFSET  -9.783040   0.000000   0.000000
        CHANNELS 3 Zrotation Xrotation Yrotation
        JOINT RightKnee
        {
            OFFSET   0.000047 -41.789100  -0.000896
            CHANNELS 3 Zrotation Xrotation Yrotation
            JOINT RightAnkle
            {
                OFFSET  -0.000117 -41.133300  -0.000248
                CHANNELS 3 Zrotation Xrotation Yrotation
                JOINT RightToe
                {
                    OFFSET   0.000000  -6.358970  14.674500
                    CHANNELS 3 Zrotation Xrotation Yrotation
                    End Site
                    {
                        OFFSET   0.000000   0.000000   3.913200
                    }
                }
            }
        }
    }
}
MOTION
Frames: 6
Frame Time:   0.016667
 -4.826780  89.344100  -0.617412  -6.634080 -15.854200 -11.200400   3.819030   9.556970  -0.723903   7.930470  19.041600  -2.147810   3.004660  -2.876000   0.147644   4.971040  -5.783710   8.809760  -8.887260  -1.232200  -1.448590 -65.050500  25.036100 -14.266200  -3.173510  -7.646750  -9.910030   3.341930  -7.623950   9.804030  41.706500  31.337300 -71.182500  -3.945340  -0.002500  -0.000118   3.027330   0.004468   0.002286 -25.073400   4.838810 -10.221200 -20.868600   0.000166   0.000944 -14.608000   0.000087   0.000536 -26.862200   3.275000  -6.435260 -27.186500   0.005676   0.002861 -18.106200   0.001158   0.005731 -26.184800   1.008790  -2.050690 -26.202800   0.001218   0.000684 -17.451100   0.001971  -0.000727 -28.678100   1.097040  -2.004860 -43.045900   0.001707  -0.000416 -28.668600   0.002099   0.000260   2.381830  -0.957783  15.091400   9.469630   4.175310  68.246200 -21.133300  -6.349660  91.498200   1.787030  17.797100  24.275500 -61.980600  38.190300  64.696700 -10.627800   0.007251  -0.005665 -10.313900   0.003941  -0.000607  88.996300   4.994540   0.086087  93.104200  -0.005349   0.003221  69.828200   0.004484   0.004310  89.000000  -0.001051  -0.001887 110.004000  -0.006830   0.001091  80.000000   0.002612   0.004584  88.994200  -5.004830  -0.092703 104.332000  -0.005451   0.005119  78.249400   0.000912   0.001064  88.985000 -10.003000  -0.174529 109.997000  -0.003605   0.002475  80.002900   0.003984   0.004565   6.944210  21.437700   3.660140   2.298340   0.646007   8.986950  -6.029140  -2.983570   1.405970   0.000000   0.000000  -0.000000   5.118380  11.534300  -2.937410   0.845310   9.729240  -5.497880   0.860601  -5.917410   7.176790   0.000000   0.000000   0.000000
 -4.763820  89.349700  -0.600293  -6.602530 -15.829000 -11.105700   3.789520   9.550030  -0.691365   7.864200  19.030700  -2.075690   2.968080  -2.898930   0.147650   4.911110  -5.831060   8.761380  -8.916390  -1.262800  -1.470640 -65.052400  25.024100 -14.213200  -3.157550  -7.645030  -9.933550   3.385490  -7.642290   9.805030  41.679800  31.314000 -71.176100  -3.988140  -0.002472  -0.000112   3.005930   0.004472   0.002304 -25.101300   4.835550 -10.200800 -20.890800   0.000193   0.000950 -14.623600   0.000102   0.000529 -26.873800   3.265770  -6.414070 -27.229600   0.005608   0.002796 -18.134900   0.001152   0.005680 -26.211500   0.995706  -2.021690 -26.229100   0.001216   0.000783 -17.468600   0.001971  -0.000721 -28.706700   1.082790  -1.976420 -43.088100   0.001703  -0.000419 -28.696700   0.002098   0.000262   2.417210  -1.099770  15.067900   9.477850   4.469310  68.023000 -21.550200  -6.026790  91.485800   1.457970  16.987700  23.960700 -62.090900  38.261300  64.954100 -10.388600   0.007671  -0.005805 -10.194300   0.004173  -0.000669  88.996300   4.994530   0.086211  93.561300  -0.005488   0.003609  70.171000   0.004512   0.004401  89.000000  -0.001055  -0.001886 110.004000  -0.006792   0.001022  80.000000   0.002780   0.004568  88.994200  -5.004830  -0.092769 104.599000  -0.005513   0.005178  78.449400   0.000899   0.001071  88.985000 -10.003000  -0.174512 109.997000  -0.003644   0.002499  80.002900   0.003925   0.004509   6.914030  21.424500   3.652260   2.269720   0.570900   8.942730  -5.985030  -2.943900   1.392480  -0.000000   0.000000  -0.000000   5.054240  11.535800  -2.949120   0.871632   9.680890  -5.562370   0.884478  -5.897380   7.171730   0.000000   0.000000  -0.000000
 -4.688010  89.354200  -0.584233  -6.572590 -15.802100 -11.016700   3.762160   9.546430  -0.654778   7.801780  19.026700  -1.995990   2.916240  -2.933730   0.147649   4.826130  -5.902840   8.701330  -8.952740  -1.305250  -1.502720 -65.060000  25.004600 -14.155900  -3.138530  -7.649160  -9.947800   3.401460  -7.678090   9.798940  41.701800  31.349700 -71.211100  -3.994610  -0.002431  -0.000112   3.002690   0.004471   0.002301 -25.149000   4.829250 -10.167900 -20.928000   0.000223   0.000957 -14.649600   0.000117   0.000522 -26.873900   3.261930  -6.406320 -27.227700   0.005539   0.002730 -18.133600   0.001145   0.005626 -26.260300   0.974965  -1.975430 -26.277200   0.001215   0.000885 -17.500600   0.001969  -0.000717 -28.758400   1.060160  -1.931050 -43.164600   0.001697  -0.000414 -28.747700   0.002099   0.000265   2.457850  -1.304090  15.049400   9.591170   4.781910  67.745500 -21.909700  -5.565560  91.472900   1.071140  16.075400  23.702900 -61.677800  38.041300  64.622900 -10.212600   0.008099  -0.005946 -10.106300   0.004391  -0.000744  88.996300   4.994520   0.086335  94.432700  -0.005622   0.004012  70.824600   0.004538   0.004508  89.000000  -0.001063  -0.001881 110.004000  -0.006743   0.000953  80.000000   0.002948   0.004556  88.994100  -5.004840  -0.092833 105.129000  -0.005569   0.005230  78.841500   0.000883   0.001078  88.985000 -10.003100  -0.174493 109.997000  -0.003680   0.002526  80.002900   0.003859   0.004450   6.873280  21.399500   3.648750   2.250890   0.516434   8.888090  -5.939920  -2.924460   1.392960  -0.000000   0.000000   0.000000   5.000330  11.530900  -2.926190   0.882136   9.639150  -5.627640   0.887438  -5.860960   7.144470  -0.000000   0.000000   0.000000
 -4.605700  89.357800  -0.568145  -6.545000 -15.773700 -10.933900   3.736290   9.543750  -0.614236   7.741750  19.024700  -1.908540   2.858740  -2.976780   0.147639   4.732020  -5.991300   8.622160  -8.993460  -1.353200  -1.540460 -65.074100  24.973000 -14.092000  -3.120980  -7.653410  -9.956760   3.413300  -7.703200   9.787600  41.723900  31.385300 -71.246200  -4.001070  -0.002390  -0.000111   2.999450   0.004470   0.002297 -25.185200   4.822970 -10.137000 -20.956300   0.000253   0.000962 -14.669400   0.000132   0.000513 -26.871000   3.258760  -6.401210 -27.215300   0.005470   0.002664 -18.125400   0.001139   0.005572 -26.294300   0.955639  -1.933200 -26.310400   0.001215   0.000986 -17.522700   0.001967  -0.000712 -28.794400   1.039080  -1.889670 -43.217300   0.001691  -0.000409 -28.782800   0.002100   0.000267   2.501760  -1.532430  15.028300   9.700010   5.129630  67.447400 -22.098500  -5.070580  91.400800   0.684658  15.164700  23.435900 -61.274000  37.809100  64.305300 -10.017000   0.008534  -0.006093 -10.008500   0.004600  -0.000830  88.996300   4.994520   0.086458  95.282800  -0.005760   0.004422  71.462100   0.004561   0.004625  89.000000  -0.001067  -0.001877 110.004000  -0.006690   0.000884  80.000000   0.003114   0.004541  88.994100  -5.004840  -0.092894 105.649000  -0.005619   0.005279  79.233300   0.000862   0.001084  88.985000 -10.003100  -0.174474 109.997000  -0.003717   0.002552  80.003000   0.003792   0.004391   6.830510  21.382600   3.644630   2.231150   0.456111   8.831760  -5.890450  -2.905290   1.396430  -0.000000   0.000000   0.000000   4.949560  11.523600  -2.886770   0.890332   9.595560  -5.693570   0.880031  -5.809060   7.107220  -0.000000   0.000000   0.000000
 -4.522450  89.360000  -0.551483  -6.521380 -15.745900 -10.860500   3.712580   9.541310  -0.568818   7.685340  19.023500  -1.811530   2.801040  -3.025040   0.147623   4.637670  -6.089940   8.513280  -9.035980  -1.400900  -1.581320 -65.102500  24.914400 -14.018800  -3.105680  -7.621150  -9.965040   3.443190  -7.665320   9.775950  41.704200  31.349900 -71.209300  -4.048900  -0.002362  -0.000108   2.975540   0.004472   0.002297 -25.189500   4.817330 -10.121200 -20.958700   0.000285   0.000968 -14.671100   0.000146   0.000501 -26.862400   3.249670  -6.388590 -27.175300   0.005399   0.002600 -18.098700   0.001133   0.005519 -26.260300   0.946393  -1.917320 -26.275900   0.001218   0.001082 -17.499700   0.001968  -0.000705 -28.756300   1.029010  -1.874290 -43.159500   0.001685  -0.000417 -28.744300   0.002098   0.000263   2.549290  -1.766870  14.994600   9.737980   5.521850  67.153400 -22.164300  -4.599440  91.257400   0.413567  14.298200  23.094400 -61.346400  37.893900  64.697300  -9.741360   0.008968  -0.006254  -9.870690   0.004803  -0.000893  88.996300   4.994510   0.086582  95.674100  -0.005912   0.004832  71.755500   0.004580   0.004740  89.000000  -0.001067  -0.001877 110.003000  -0.006634   0.000816  80.000000   0.003277   0.004522  88.994100  -5.004840  -0.092956 105.885000  -0.005665   0.005326  79.444800   0.000836   0.001089  88.985000 -10.003200  -0.174451 109.997000  -0.003755   0.002575  80.003000   0.003729   0.004335   6.795100  21.382200   3.634190   2.202140   0.367846   8.779150  -5.833890  -2.869890   1.414510  -0.000000   0.000000   0.000000   4.905350  11.520500  -2.848800   0.898165   9.544010  -5.761050   0.829643  -5.732520   7.071990  -0.000000   0.000000  -0.000000
 -4.436210  89.362200  -0.534478  -6.498220 -15.711900 -10.788900   3.688770   9.536440  -0.519947   7.628010  19.017600  -1.707260   2.745460  -3.081710   0.147599   4.547070  -6.205490   8.384570  -9.083140  -1.453040  -1.625320 -65.129700  24.850300 -13.940100  -3.091000  -7.576620  -9.968630   3.473320  -7.610530   9.764200  41.670400  31.295600 -71.156100  -4.111840  -0.002337  -0.000102   2.944080   0.004474   0.002298 -25.192400   4.814340 -10.116000 -20.960800   0.000317   0.000972 -14.672500   0.000162   0.000491 -26.856300   3.243410  -6.375320 -27.145700   0.005328   0.002538 -18.079000   0.001127   0.005467 -26.225800   0.943655  -1.914790 -26.241500   0.001220   0.001180 -17.476800   0.001969  -0.000698 -28.717800   1.026040  -1.871960 -43.101700   0.001679  -0.000424 -28.705800   0.002097   0.000259   2.595510  -1.973260  14.957800   9.679460   5.959060  66.866900 -22.556400  -4.179210  91.062600   0.100680  13.557000  22.717600 -61.424200  38.042600  65.243300  -9.380400   0.009409  -0.006422  -9.690210   0.004995  -0.001025  88.996300   4.994500   0.086707  95.925500  -0.006071   0.005239  71.944000   0.004596   0.004885  89.000000  -0.001065  -0.001877 110.003000  -0.006577   0.000747  80.000000   0.003436   0.004500  88.994000  -5.004840  -0.093016 106.047000  -0.005706   0.005369  79.586800   0.000805   0.001095  88.985000 -10.003200  -0.174429 109.997000  -0.003792   0.002597  80.003000   0.003668   0.004280   6.761430  21.381800   3.621160   2.166570   0.261927   8.732340  -5.770180  -2.824610   1.433830   0.000000   0.000000  -0.000000   4.857960  11.516200  -2.817180   0.906860   9.483430  -5.817460   0.760322  -5.647260   7.032430   0.000000   0.000000   0.000000
